<svg width="131" height="40" viewBox="0 0 131 40" fill="none" xmlns="http://www.w3.org/2000/svg">
<g clip-path="url(#clip0_1891_13275)">
<path d="M14.466 20.8938C14.7217 20.9945 14.9774 21.0417 15.2271 21.0417C15.7444 21.0417 16.1843 20.8642 16.5292 20.521C16.8741 20.1778 17.0524 19.7341 17.0524 19.2015V2.0951C17.0524 1.56256 16.8741 1.11878 16.5292 0.775585C15.8395 0.0891929 14.6325 0.0832809 13.9191 0.769668C13.5623 1.11287 13.378 1.56848 13.378 2.09511V14.3375L3.23498 0.911108C3.0685 0.727676 2.8604 0.567908 2.61663 0.443652C1.85557 0.0708681 1.05292 0.248388 0.523707 0.775012C0.178853 1.1182 0.000488281 1.562 0.000488281 2.09453V19.2009C0.000488281 19.7335 0.178861 20.1772 0.523707 20.5205C1.23125 21.2246 2.47387 21.2069 3.15767 20.5028C3.50253 20.1477 3.67495 19.7098 3.67495 19.2009V6.98173L13.7769 20.3545C13.9375 20.5972 14.1694 20.7747 14.4667 20.893L14.466 20.8938Z" fill="#0E302F"/>
<path d="M43.6887 1.35504C42.0834 0.4556 40.2402 0 38.2127 0C36.1852 0 34.3123 0.455624 32.707 1.35504C31.0957 2.26032 29.8293 3.53256 28.9374 5.14792C28.0515 6.75144 27.5996 8.5976 27.5996 10.6331C27.5996 12.6686 28.0515 14.5148 28.9315 16.1302C29.8233 17.7515 31.0897 19.0355 32.701 19.9349C34.3064 20.8343 36.1555 21.2899 38.2067 21.2899C40.258 21.2899 42.1012 20.8343 43.6946 19.9349C45.3 19.0296 46.5664 17.7515 47.4643 16.1302C48.3561 14.5207 48.8139 12.6686 48.8139 10.6331C48.8139 8.5976 48.362 6.75152 47.4643 5.14792C46.5664 3.53848 45.2941 2.26032 43.6828 1.35504H43.6887ZM45.2227 10.6334C45.2227 11.9885 44.9195 13.2252 44.3189 14.3258C43.7244 15.4146 42.886 16.2843 41.8217 16.9175C40.7575 17.5447 39.5445 17.8642 38.2067 17.8642C36.869 17.8642 35.656 17.5447 34.5918 16.9175C33.5275 16.2843 32.6891 15.4146 32.0946 14.3258C31.4941 13.2311 31.1908 11.9885 31.1908 10.6334C31.1908 9.2784 31.4941 8.03584 32.0946 6.94112C32.6891 5.85232 33.5215 4.98256 34.5799 4.3612C35.6323 3.7399 36.8571 3.42632 38.2067 3.42632C39.5564 3.42632 40.7813 3.73994 41.8336 4.3612C42.886 4.9825 43.7244 5.85232 44.3189 6.94112C44.9195 8.03584 45.2227 9.2784 45.2227 10.6334Z" fill="#0E302F"/>
<path d="M74.3391 0.254178C73.9407 0.254178 73.6018 0.331101 73.3343 0.490866C73.0429 0.662466 72.817 0.958322 72.6624 1.35479L66.6513 15.4668L60.7353 1.36039C60.4321 0.64441 59.8316 0.253906 59.0289 0.253906C58.5235 0.253906 58.1073 0.395922 57.7922 0.685858C57.4711 0.975802 57.3047 1.39 57.3047 1.8693C57.3047 2.17107 57.3819 2.52611 57.5544 2.96402L64.9984 19.8992C65.4324 20.8459 66.1459 21.0412 66.6751 21.0412C67.4659 21.0412 68.0604 20.627 68.3518 19.8933L75.8671 2.7333C75.998 2.43152 76.0633 2.14159 76.0633 1.86938C76.0633 1.40784 75.8969 1.00546 75.5818 0.703698C75.2666 0.407842 74.8504 0.254178 74.3391 0.254178Z" fill="#0E302F"/>
<path d="M105.794 10.6326C105.794 8.59711 105.343 6.75103 104.445 5.14743C103.547 3.53799 102.275 2.25983 100.663 1.35455C99.0579 0.455112 97.2145 -0.000488281 95.1871 -0.000488281C93.1598 -0.000488281 91.2871 0.455136 89.682 1.35455C88.0705 2.25983 86.8039 3.53207 85.9122 5.14743C85.0259 6.75095 84.5801 8.59711 84.5801 10.6326C84.5801 12.6682 85.0259 14.5143 85.9122 16.1297C86.8039 17.751 88.0705 19.035 89.682 19.9344C91.2871 20.8338 93.1361 21.2894 95.1871 21.2894C97.2389 21.2894 99.0816 20.8338 100.681 19.9344C102.281 19.0291 103.553 17.751 104.451 16.1297C105.343 14.5143 105.8 12.6682 105.8 10.6326H105.794ZM102.197 10.6326C102.197 11.9877 101.894 13.2303 101.294 14.325C100.699 15.4138 99.8605 16.2835 98.7967 16.9167C97.7322 17.5439 96.5192 17.8634 95.1816 17.8634C93.8432 17.8634 92.6303 17.5439 91.5665 16.9167C90.5019 16.2835 89.6638 15.4138 89.0688 14.325C88.469 13.2303 88.1652 11.9877 88.1652 10.6326C88.1652 9.27759 88.469 8.03503 89.0688 6.94031C89.6638 5.85151 90.5019 4.98175 91.5546 4.36039C92.6066 3.7391 93.8314 3.42551 95.1816 3.42551C96.5311 3.42551 97.7558 3.73913 98.8086 4.36039C99.8605 4.9817 100.699 5.85151 101.294 6.94031C101.894 8.03503 102.197 9.27759 102.197 10.6326Z" fill="#0E302F"/>
<path d="M128.956 10.6383C127.761 9.5437 126.066 8.88098 123.932 8.66794C122.22 8.49634 121.036 8.1413 120.406 7.6265C119.818 7.13537 119.532 6.54954 119.532 5.83362C119.532 5.06439 119.835 4.52002 120.477 4.11762C121.185 3.67384 122.143 3.4549 123.319 3.4549C124.271 3.4549 125.055 3.63241 125.656 3.97561C126.263 4.32473 126.774 4.84545 127.173 5.50225C127.339 5.80995 127.577 6.05255 127.88 6.22415C128.48 6.57326 129.242 6.57917 129.818 6.21231C130.3 5.88095 130.549 5.41349 130.549 4.86911C130.549 4.48449 130.418 4.08213 130.163 3.67975C129.426 2.51999 128.516 1.61463 127.446 0.981509C126.37 0.348373 125.038 0.0229492 123.492 0.0229492C122.094 0.0229492 120.817 0.241885 119.68 0.679757C118.521 1.12355 117.588 1.78624 116.916 2.63832C116.226 3.51408 115.876 4.56136 115.876 5.75664C115.876 7.44304 116.547 8.86904 117.861 9.98736C119.14 11.0702 120.906 11.733 123.105 11.94C124.503 12.0821 125.549 12.4548 126.204 13.0525C126.84 13.6382 127.149 14.3128 127.149 15.1294C127.149 15.9459 126.791 16.5969 126.066 17.0762C125.282 17.5969 124.295 17.8572 123.135 17.8572C122.143 17.8572 121.221 17.6442 120.406 17.23C119.621 16.8335 119.098 16.3542 118.849 15.8217C118.688 15.4607 118.438 15.1649 118.105 14.9459C117.772 14.727 117.416 14.6205 117.041 14.6205C116.862 14.6205 116.732 14.6382 116.678 14.656C116.25 14.7448 115.905 14.9282 115.644 15.2004C115.364 15.4903 115.215 15.8454 115.215 16.2359C115.215 16.443 115.269 16.6738 115.382 16.9459C115.935 18.2478 116.951 19.3128 118.396 20.1058C119.818 20.8868 121.411 21.2832 123.135 21.2832C124.449 21.2832 125.698 21.0525 126.845 20.6028C128.023 20.1412 128.986 19.4253 129.7 18.4844C130.425 17.5258 130.8 16.372 130.8 15.0466C130.8 13.2359 130.175 11.7448 128.95 10.6264L128.956 10.6383Z" fill="#0E302F"/>
<path d="M8.59724 27.0418H1.44449C1.12342 27.0418 0.84992 27.1483 0.629919 27.3613C0.403983 27.5743 0.291016 27.8525 0.291016 28.1897V38.8521C0.291016 39.1717 0.403983 39.4438 0.623977 39.6687C0.843962 39.8935 1.12341 40.0001 1.44446 40.0001C1.76552 40.0001 2.04498 39.8876 2.26495 39.6687C2.48494 39.4497 2.59791 39.1717 2.59791 38.8521V34.5504H6.81343C7.12854 34.5504 7.40205 34.4497 7.61608 34.2485C7.83607 34.0474 7.94902 33.7752 7.94902 33.4675C7.94902 33.1598 7.83607 32.8877 7.61608 32.6865C7.40203 32.4853 7.12853 32.3847 6.81343 32.3847H2.59791V29.2131H8.59716C8.9241 29.2131 9.19763 29.1125 9.40573 28.9231C9.61975 28.7278 9.73275 28.4557 9.73275 28.148C9.73275 27.8403 9.61975 27.5562 9.41165 27.3551C9.20355 27.1539 8.9241 27.0474 8.59716 27.0474L8.59724 27.0418Z" fill="#0E302F"/>
<path d="M36.185 27.3662C35.7629 26.9461 34.9958 26.9283 34.5439 27.3662C34.324 27.5792 34.2051 27.8633 34.2051 28.1946V30.6562C34.2051 30.9875 34.3121 31.2656 34.5321 31.4786C34.9542 31.8988 35.7212 31.9165 36.1731 31.4786C36.3931 31.2656 36.512 30.9816 36.512 30.6502V28.1887C36.512 27.8574 36.405 27.5792 36.185 27.3662Z" fill="#3FC9C5"/>
<path d="M36.185 33.2842C35.7629 32.8641 34.9958 32.8463 34.5439 33.2842C34.324 33.4972 34.2051 33.7813 34.2051 34.1126V38.8581C34.2051 39.1777 34.318 39.4499 34.538 39.6747C34.758 39.8937 35.0375 40.0061 35.3585 40.0061C35.6796 40.0061 35.971 39.8937 36.1909 39.6688C36.405 39.4499 36.512 39.1777 36.512 38.8581V34.1126C36.512 33.7813 36.405 33.5031 36.185 33.2901V33.2842Z" fill="#0E302F"/>
<path d="M68.6377 32.9294C68.8993 32.7224 69.1192 32.4857 69.3036 32.2195C69.6187 31.7579 69.7792 31.2254 69.7792 30.6514C69.7792 29.965 69.6069 29.3319 69.262 28.7875C68.9171 28.2372 68.4414 27.8052 67.841 27.5035C67.2464 27.2017 66.5626 27.0479 65.8076 27.0479H62.0261C61.705 27.0479 61.4315 27.1543 61.2115 27.3674C60.9915 27.5804 60.8726 27.8644 60.8726 28.1958V38.8582C60.8726 39.1777 60.9856 39.4499 61.2056 39.6747C61.4255 39.8937 61.705 40.0061 62.0261 40.0061H66.1405C66.9729 40.0061 67.728 39.8345 68.3879 39.4972C69.0598 39.154 69.589 38.6688 69.9576 38.0535C70.3322 37.438 70.5165 36.7339 70.5165 35.9647C70.5165 35.1126 70.2847 34.3967 69.8268 33.8345C69.5117 33.4439 69.1074 33.1481 68.6317 32.935L68.6377 32.9294ZM68.2809 35.9531C68.2809 36.5627 68.0967 37.0123 67.7161 37.3319C67.3178 37.6632 66.8064 37.8289 66.1405 37.8289H63.1795V34.2667H66.1405C66.8124 34.2667 67.3474 34.4206 67.734 34.7165C68.1026 35.0005 68.2809 35.4029 68.2809 35.9531ZM63.1795 32.0951V29.2076H65.8076C66.3486 29.2076 66.7826 29.3319 67.0977 29.5863C67.395 29.823 67.5377 30.1662 67.5377 30.6454C67.5377 31.1247 67.395 31.4739 67.0977 31.7165C66.7826 31.9709 66.3545 32.101 65.8135 32.101H63.1855L63.1795 32.0951Z" fill="#0E302F"/>
<path d="M99.6233 29.2135C99.95 29.2135 100.224 29.1129 100.432 28.9235C100.646 28.7283 100.759 28.4561 100.759 28.1484C100.759 27.8407 100.646 27.5567 100.438 27.3555C100.229 27.1543 99.95 27.0479 99.6233 27.0479H92.4703C92.1492 27.0479 91.8761 27.1543 91.6559 27.3674C91.4358 27.5804 91.3174 27.8644 91.3174 28.1958V38.8582C91.3174 39.1777 91.4302 39.4499 91.6496 39.6747C91.8698 39.8937 92.1492 40.0061 92.4703 40.0061H99.6233C99.95 40.0061 100.229 39.9055 100.438 39.7043C100.652 39.4972 100.759 39.231 100.759 38.9115C100.759 38.5919 100.646 38.3315 100.432 38.1363C100.224 37.941 99.95 37.8463 99.6233 37.8463H93.6241V34.5623H97.8398C98.1546 34.5623 98.4277 34.4617 98.6423 34.2605C98.8617 34.0594 98.9754 33.7871 98.9754 33.4795C98.9754 33.1718 98.8617 32.8996 98.6423 32.6984C98.4277 32.4972 98.1546 32.3967 97.8398 32.3967H93.6241V29.2251H99.6233V29.2135Z" fill="#0E302F"/>
<path d="M128.364 34.6688C128.917 34.3611 129.375 33.9351 129.72 33.4084C130.136 32.7812 130.344 32.0534 130.344 31.2428C130.344 30.4321 130.154 29.6984 129.785 29.0593C129.411 28.4203 128.881 27.9173 128.216 27.5623C127.55 27.2132 126.795 27.0356 125.962 27.0356H123.114C122.793 27.0356 122.52 27.1422 122.299 27.3552C122.079 27.5682 121.961 27.8522 121.961 28.1836V38.846C121.961 39.1656 122.074 39.4377 122.293 39.6626C122.745 40.1123 123.519 40.0945 123.94 39.6626C124.155 39.4436 124.261 39.1715 124.261 38.8519V35.2602H126.057L128.685 39.4555C128.917 39.8105 129.256 39.9999 129.678 39.9999C130.011 39.9999 130.285 39.8933 130.487 39.6921C130.695 39.4851 130.796 39.2306 130.796 38.9348C130.796 38.6921 130.725 38.4614 130.588 38.2424L128.358 34.6744L128.364 34.6688ZM128.102 31.2487C128.102 31.7931 127.912 32.225 127.52 32.5682C127.116 32.9232 126.604 33.0948 125.962 33.0948H124.268V29.2132H125.962C126.598 29.2132 127.104 29.4025 127.508 29.7812C127.906 30.16 128.102 30.6392 128.102 31.2428V31.2487Z" fill="#0E302F"/>
</g>
<defs>
<clipPath id="clip0_1891_13275">
<rect width="131" height="40" fill="white"/>
</clipPath>
</defs>
</svg>
