<svg width="103" height="32" viewBox="0 0 103 32" fill="none" xmlns="http://www.w3.org/2000/svg">
<g clip-path="url(#clip0_177_2806)">
<path d="M12.7751 11.4182V14.8364H21.0241C20.8051 16.7273 20.1481 18.1818 19.1261 19.1273C17.9581 20.2909 16.0601 21.6 12.7751 21.6C7.73805 21.6 3.79602 17.5273 3.79602 12.5091C3.79602 7.49091 7.66505 3.41818 12.7751 3.41818C15.4761 3.41818 17.5201 4.50909 18.9801 5.89091L21.3891 3.49091C19.3451 1.52727 16.5711 0 12.7751 0C5.84004 0 0 5.6 0 12.5091C0 19.4182 5.84004 25.0182 12.7751 25.0182C16.4981 25.0182 19.3451 23.7818 21.5351 21.5273C23.7982 19.2727 24.5282 16.0727 24.5282 13.5273C24.5282 12.7273 24.4552 12 24.3822 11.4182H12.7751Z" fill="#4285F4"/>
<path d="M34.7483 8.58179C30.2953 8.58179 26.5723 12 26.5723 16.6545C26.5723 21.3091 30.2223 24.7272 34.7483 24.7272C39.2743 24.7272 42.9244 21.3818 42.9244 16.7272C42.9244 12 39.2743 8.58179 34.7483 8.58179ZM34.7483 21.6C32.2663 21.6 30.1493 19.5636 30.1493 16.7272C30.1493 13.8182 32.2663 11.8545 34.7483 11.8545C37.2303 11.8545 39.3473 13.8182 39.3473 16.7272C39.3473 19.5636 37.2303 21.6 34.7483 21.6Z" fill="#EA4335"/>
<path d="M74.6798 10.4H74.5338C73.7308 9.45451 72.1978 8.58179 70.2268 8.58179C66.1388 8.58179 62.6348 12.0727 62.6348 16.6545C62.6348 21.1636 66.1388 24.7272 70.2268 24.7272C72.1978 24.7272 73.7308 23.8545 74.5338 22.9091H74.6798V24.0727C74.6798 27.1272 73.0008 28.8 70.3728 28.8C68.1828 28.8 66.8688 27.2727 66.2848 25.8909L63.2188 27.2C64.0948 29.3091 66.5038 32 70.4458 32C74.6068 32 78.1839 29.5272 78.1839 23.5636V9.01815H74.8258V10.4H74.6798ZM70.5918 21.6C68.1098 21.6 66.2848 19.4909 66.2848 16.7272C66.2848 13.8909 68.1828 11.8545 70.5918 11.8545C73.0008 11.8545 74.8988 13.9636 74.8988 16.8C74.9718 19.5636 73.0738 21.6 70.5918 21.6Z" fill="#4285F4"/>
<path d="M52.9261 8.58179C48.473 8.58179 44.75 12 44.75 16.6545C44.75 21.3091 48.4 24.7272 52.9261 24.7272C57.4521 24.7272 61.1021 21.3818 61.1021 16.7272C61.1021 12 57.4521 8.58179 52.9261 8.58179ZM52.9261 21.6C50.444 21.6 48.327 19.5636 48.327 16.7272C48.327 13.8182 50.444 11.8545 52.9261 11.8545C55.4081 11.8545 57.5251 13.8182 57.5251 16.7272C57.5251 19.5636 55.4081 21.6 52.9261 21.6Z" fill="#FBBC05"/>
<path d="M80.8848 0.363525H84.3888V24.7999H80.8848V0.363525Z" fill="#34A853"/>
<path d="M95.1922 21.6C93.3671 21.6 92.1261 20.8 91.2501 19.1272L102.127 14.6909L101.762 13.7454C101.105 11.9272 98.9882 8.58179 94.8272 8.58179C90.6661 8.58179 87.1621 11.8545 87.1621 16.6545C87.1621 21.1636 90.5931 24.7272 95.1922 24.7272C98.9152 24.7272 101.032 22.4727 101.981 21.1636L99.2072 19.3454C98.2582 20.7272 97.0172 21.6 95.1922 21.6ZM94.9732 11.6363C96.4332 11.6363 97.6742 12.3636 98.0392 13.3818L90.7391 16.4363C90.6661 13.0909 93.1482 11.6363 94.9732 11.6363Z" fill="#EA4335"/>
</g>
<defs>
<clipPath id="clip0_177_2806">
<rect width="102.128" height="32" fill="white"/>
</clipPath>
</defs>
</svg>
