<svg width="363" height="269" viewBox="0 0 363 269" fill="none" xmlns="http://www.w3.org/2000/svg">
<path d="M181.21 -37.2971C256.268 -37.297 309.214 12.2635 324.72 85.4089L324.972 86.5974H336.056L336.742 86.6033C350.922 86.7995 364.487 92.4295 374.638 102.332L375.126 102.814C385.328 113.016 391.139 126.791 391.338 141.199L391.343 141.885V162.532C391.326 177.19 385.496 191.242 375.132 201.606C364.767 211.971 350.714 217.801 336.056 217.817H328.226L328.178 219.268C327.403 243.044 319.539 266.037 305.607 285.299L304.939 286.213C290.592 305.659 270.676 320.288 247.83 328.166L246.837 328.509L246.819 329.559C246.586 343.993 240.718 357.754 230.484 367.91L229.994 368.39C219.623 378.431 205.743 384.012 191.326 383.958L190.64 383.951C176.206 383.717 162.446 377.849 152.29 367.616L151.809 367.125C141.609 356.589 136.012 342.433 136.249 327.77V327.745C136.237 315.964 139.989 304.497 146.943 295.011L147.627 294.1C155.018 284.443 165.388 277.493 177.13 274.328C188.505 271.262 200.553 271.913 211.517 276.171L212.574 276.594C223.818 281.228 233.218 289.442 239.319 299.962L239.993 301.124L241.223 300.582C263.016 290.968 278.14 278.546 287.774 261.242C297.388 243.977 301.442 222.018 301.442 193.506V131.558C301.442 90.0708 289.745 54.8582 268.818 29.99C247.871 5.09745 217.762 -9.32339 181.21 -9.32349C144.658 -9.32349 114.549 5.10277 93.6016 29.9978C72.675 54.8685 60.9766 90.0809 60.9766 131.558V203.831C60.971 207.539 59.4959 211.093 56.874 213.715C54.2517 216.337 50.6968 217.812 46.9883 217.817H26.3428C11.9171 217.801 -1.92332 212.155 -12.2383 202.096L-12.7266 201.614C-22.9289 191.415 -28.7401 177.643 -28.9395 163.237L-28.9443 162.551V141.905C-28.9285 127.474 -23.2795 113.629 -13.2168 103.31L-12.7344 102.822C-2.53197 92.6159 11.2447 86.8028 25.6562 86.6033L26.3428 86.5974H37.4268L37.6787 85.4089C53.1845 12.2636 106.151 -37.2971 181.21 -37.2971ZM191.533 300.434C184.518 300.44 177.783 303.143 172.714 307.967L172.229 308.44C167.268 313.401 164.41 320.072 164.231 327.067L164.223 327.745V327.746C164.223 332.979 165.726 338.098 168.548 342.496L168.825 342.92C171.733 347.271 175.827 350.692 180.617 352.781L181.083 352.978C186.073 355.045 191.565 355.587 196.862 354.533C201.995 353.512 206.722 351.039 210.485 347.413L210.847 347.058C214.666 343.239 217.267 338.372 218.321 333.074C219.342 327.942 218.866 322.628 216.956 317.763L216.767 317.295C214.764 312.46 211.416 308.306 207.126 305.323L206.708 305.038C202.357 302.131 197.265 300.536 192.04 300.439L191.534 300.434H191.533ZM329.416 189.864H336.058C343.076 189.864 349.817 187.165 354.891 182.341L355.377 181.867C360.342 176.906 363.202 170.231 363.381 163.232L363.39 162.554V141.904L363.382 141.225C363.214 134.452 360.534 127.98 355.865 123.07L355.393 122.585C350.432 117.62 343.757 114.76 336.758 114.581L336.079 114.572H329.416V189.864ZM26.3398 114.572C19.3211 114.578 12.5828 117.283 7.5127 122.111L7.02734 122.585C1.9063 127.71 -0.970707 134.659 -0.970703 141.904V162.555C-0.959466 169.567 1.74563 176.296 6.56934 181.361L7.04297 181.846C12.0027 186.802 18.6704 189.656 25.6621 189.835L26.3398 189.844H33.0029V114.572H26.3398Z" stroke="#C5E8E8" stroke-opacity="0.3" stroke-width="3"/>
</svg>
