<svg width="474" height="37" viewBox="0 0 474 37" fill="none" xmlns="http://www.w3.org/2000/svg">
<g clip-path="url(#clip0_549_2)">
<path d="M25.1027 36.3005C25.5472 36.4729 25.9928 36.5604 26.4266 36.5604C27.3248 36.5604 28.084 36.2558 28.6828 35.6573C29.2861 35.0579 29.5926 34.2852 29.5926 33.3624V3.63667C29.5926 2.71476 29.2869 1.94299 28.6846 1.34446C27.4879 0.148296 25.3976 0.142969 24.1597 1.33198C23.5431 1.92518 23.2177 2.72199 23.2177 3.63674V24.9154L5.61661 1.58384C5.3316 1.26134 4.97123 0.989773 4.54275 0.776302C3.21793 0.119688 1.82405 0.433289 0.906173 1.34446C0.304727 1.94474 -6.10352e-05 2.71571 -6.10352e-05 3.63667V33.3624C-6.10352e-05 34.2843 0.304727 35.0561 0.907052 35.6555C2.13506 36.8802 4.28901 36.8481 5.47762 35.6216C6.07189 35.0079 6.37309 34.2477 6.37309 33.3624V12.1276L23.9024 35.3652C24.1848 35.7842 24.5873 36.0985 25.1027 36.3005Z" fill="white"/>
<path d="M75.8046 2.35745C73.0205 0.793236 69.8223 0 66.3005 0C62.7464 0 59.5338 0.793236 56.7515 2.35745C53.9549 3.92786 51.7534 6.14511 50.208 8.94826C48.6707 11.7336 47.8909 14.9397 47.8909 18.4781C47.8909 22.0147 48.6699 25.2271 50.2062 28.0276C51.7515 30.846 53.9538 33.0721 56.7514 34.6426C59.5355 36.2068 62.7481 37 66.3004 37C69.8527 37 73.0572 36.2068 75.8278 34.6417C78.6092 33.0713 80.8098 30.8469 82.3686 28.0312C83.9211 25.2298 84.7081 22.0156 84.7081 18.4781C84.7081 14.9388 83.9211 11.731 82.3677 8.94468C80.808 6.14329 78.6003 3.92699 75.8046 2.35745ZM78.4677 18.4781C78.4677 20.8275 77.9416 22.9857 76.9045 24.8903C75.8728 26.7832 74.4153 28.2982 72.5714 29.3934C70.7285 30.4877 68.6185 31.0424 66.3005 31.0424C63.9824 31.0424 61.8724 30.4877 60.0295 29.3934C58.1838 28.2982 56.7264 26.7832 55.6965 24.8903C54.6594 22.9884 54.1332 20.831 54.1332 18.4781C54.1332 16.1252 54.6594 13.9678 55.6965 12.0641C56.7264 10.1721 58.1758 8.66509 60.0043 7.58511C61.8348 6.50418 63.9537 5.9566 66.3004 5.9566C68.6471 5.9566 70.7643 6.50418 72.5947 7.58511C74.4224 8.66421 75.8726 10.1722 76.9044 12.0641C77.9415 13.9705 78.4677 16.1287 78.4677 18.4781Z" fill="white"/>
<path d="M128.994 0.438614C128.304 0.438614 127.717 0.57706 127.249 0.8522C126.747 1.14792 126.35 1.66243 126.078 2.35744L115.652 26.8752L105.387 2.36101C104.866 1.12113 103.814 0.438614 102.427 0.438614C101.547 0.438614 100.827 0.68967 100.286 1.18543C99.7321 1.69374 99.439 2.4048 99.439 3.24183C99.439 3.76977 99.5734 4.37902 99.8674 5.1446L112.782 34.5756C113.532 36.2165 114.776 36.5605 115.688 36.5605C117.057 36.5605 118.096 35.8405 118.601 34.5622L131.645 4.74262C131.869 4.22 131.982 3.71533 131.982 3.24183C131.982 2.43961 131.695 1.74104 131.15 1.22024C130.606 0.701201 129.881 0.438614 128.994 0.438614Z" fill="white"/>
<path d="M183.575 18.4781C183.575 14.9424 182.788 11.7345 181.235 8.94468C179.673 6.14329 177.466 3.92699 174.672 2.35745C171.888 0.793236 168.689 0 165.166 0C161.614 0 158.401 0.793236 155.617 2.35745C152.82 3.92786 150.619 6.14511 149.072 8.94826C147.537 11.7353 146.758 14.9415 146.758 18.4781C146.758 22.013 147.536 25.2262 149.072 28.0276C150.617 30.846 152.819 33.0721 155.617 34.6426C158.403 36.2068 161.615 37 165.166 37C168.716 37 171.923 36.2068 174.695 34.6417C177.474 33.073 179.674 30.8487 181.237 28.0312C182.788 25.2262 183.575 22.012 183.575 18.4781ZM177.333 18.4781C177.333 20.8311 176.807 22.9884 175.77 24.8912C174.741 26.7824 173.283 28.2974 171.437 29.3935C169.594 30.4878 167.484 31.0425 165.166 31.0425C162.848 31.0425 160.738 30.4878 158.895 29.3935C157.051 28.2983 155.593 26.7832 154.562 24.8903C153.525 22.9885 152.998 20.8311 152.998 18.4782C152.998 16.1253 153.525 13.9679 154.562 12.0651C155.593 10.1722 157.044 8.66421 158.871 7.58511C160.702 6.50418 162.82 5.9566 165.166 5.9566C167.512 5.9566 169.631 6.50418 171.462 7.58511C173.29 8.66509 174.74 10.1722 175.77 12.0651C176.807 13.9679 177.333 16.126 177.333 18.4781Z" fill="white"/>
<path d="M223.766 18.4834C221.688 16.5842 218.753 15.4346 215.045 15.0648C212.073 14.7637 210.016 14.1545 208.931 13.2523C207.907 12.4028 207.41 11.3834 207.41 10.1355C207.41 8.80273 207.931 7.8558 209.05 7.15547C210.276 6.38902 211.936 6.00039 213.982 6.00039C215.63 6.00039 216.994 6.30589 218.037 6.90886C219.086 7.51541 219.977 8.41943 220.664 9.55933C220.951 10.09 221.365 10.5134 221.893 10.8171C222.939 11.4228 224.256 11.4344 225.259 10.7965C226.091 10.2159 226.531 9.41008 226.531 8.4668C226.531 7.795 226.305 7.09825 225.86 6.39697C224.583 4.38166 222.998 2.80409 221.147 1.70799C219.277 0.60385 216.97 0.0437164 214.29 0.0437164C211.868 0.0437164 209.645 0.426066 207.681 1.18091C205.666 1.95634 204.053 3.10244 202.886 4.58623C201.688 6.10395 201.081 7.9263 201.081 10.0033C201.081 12.936 202.242 15.4087 204.53 17.3525C206.752 19.2383 209.814 20.3818 213.627 20.7488C216.055 20.9909 217.863 21.6421 219 22.6847C220.105 23.6986 220.642 24.8787 220.642 26.2936C220.642 27.7363 220.027 28.8432 218.761 29.6802C217.394 30.5842 215.682 31.0424 213.673 31.0424C211.948 31.0424 210.354 30.6771 208.936 29.9562C207.574 29.2656 206.662 28.4358 206.232 27.5058C205.954 26.877 205.523 26.3669 204.946 25.989C204.369 25.6129 203.748 25.4227 203.1 25.4227C202.791 25.4227 202.56 25.4513 202.47 25.4861C201.729 25.6415 201.125 25.9595 200.675 26.4285C200.191 26.9305 199.936 27.5523 199.936 28.2249C199.936 28.5876 200.031 28.9905 200.227 29.4595C201.187 31.7213 202.946 33.5696 205.454 34.9533C207.915 36.3111 210.68 36.9999 213.673 36.9999C215.953 36.9999 218.119 36.6014 220.113 35.8153C222.158 35.0105 223.826 33.7723 225.068 32.1358C226.331 30.4742 226.972 28.4643 226.972 26.1613C226.972 23.0106 225.893 20.4282 223.766 18.4834Z" fill="white"/>
<path d="M293.629 0.650116H273.985C273.107 0.650116 272.354 0.947077 271.748 1.53137C271.131 2.12442 270.819 2.88934 270.819 3.80496V33.1292C270.819 34.0096 271.128 34.7639 271.736 35.3702C272.344 35.9765 273.101 36.2841 273.985 36.2841C274.856 36.2841 275.633 35.9677 276.232 35.3702C276.841 34.7638 277.149 34.0095 277.149 33.1292V21.2967H288.718C289.589 21.2967 290.33 21.0191 290.922 20.4701C291.523 19.9115 291.841 19.1668 291.841 18.3155C291.841 17.4642 291.523 16.7195 290.922 16.16C290.33 15.6118 289.589 15.3343 288.718 15.3343H277.149V6.61351H293.629C294.529 6.61351 295.277 6.34297 295.854 5.80896C296.441 5.26437 296.752 4.52675 296.752 3.67549C296.752 2.80132 296.446 2.04516 295.866 1.48824C295.288 0.932189 294.536 0.650116 293.629 0.650116Z" fill="white"/>
<path d="M321.341 1.541C320.175 0.379508 318.074 0.335427 316.833 1.53035C316.226 2.11551 315.905 2.9016 315.905 3.80314V10.5765C315.905 11.4849 316.207 12.2464 316.801 12.8386C317.967 14 320.068 14.0441 321.309 12.8491C321.916 12.264 322.237 11.4779 322.237 10.5764V3.80314C322.237 2.89452 321.935 2.13318 321.341 1.541Z" fill="#3FC9C5"/>
<path d="M321.341 17.8104C320.175 16.6489 318.074 16.6048 316.833 17.7997C316.226 18.3849 315.905 19.171 315.905 20.0725V33.1274C315.905 34.0069 316.214 34.7603 316.821 35.3675L316.823 35.3693C317.432 35.9747 318.188 36.2822 319.071 36.2822C319.989 36.2822 320.756 35.9712 321.352 35.357C321.939 34.7515 322.237 34.0007 322.237 33.1275V20.0726C322.237 19.164 321.935 18.4026 321.341 17.8104Z" fill="white"/>
<path d="M368.739 16.8386C369.457 16.2693 370.069 15.6145 370.569 14.8805C371.437 13.6071 371.877 12.1548 371.877 10.5624C371.877 8.66684 371.4 6.94046 370.459 5.42916C369.519 3.92224 368.207 2.73345 366.559 1.89628C364.929 1.06969 363.05 0.650192 360.975 0.650192H350.588C349.712 0.650192 348.958 0.947154 348.35 1.53232C347.743 2.11748 347.422 2.90357 347.422 3.80503V33.1293C347.422 34.0088 347.731 34.7622 348.338 35.3694L348.34 35.3711C348.949 35.9765 349.705 36.2841 350.588 36.2841H361.889C364.167 36.2841 366.244 35.8135 368.06 34.8847C369.9 33.9444 371.352 32.6075 372.378 30.9094C373.402 29.2139 373.921 27.2796 373.921 25.1593C373.921 22.8196 373.282 20.85 372.023 19.3061C371.153 18.2389 370.053 17.4132 368.739 16.8386ZM367.763 25.1593C367.763 26.831 367.256 28.0727 366.214 28.9548C365.128 29.8739 363.713 30.3207 361.889 30.3207H353.754V20.5178H361.889C363.731 20.5178 365.203 20.9346 366.266 21.7577C367.273 22.5367 367.763 23.6497 367.763 25.1593ZM353.753 14.5544V6.61351H360.975C362.466 6.61351 363.657 6.96163 364.516 7.64897C365.326 8.29843 365.72 9.25106 365.72 10.5624C365.72 11.8772 365.324 12.8396 364.51 13.5022C363.652 14.2002 362.463 14.5544 360.975 14.5544H353.753Z" fill="white"/>
<path d="M421.082 6.61351C421.98 6.61351 422.728 6.34297 423.306 5.80984C423.894 5.26525 424.204 4.52762 424.204 3.67549C424.204 2.80132 423.897 2.04428 423.318 1.48824C422.74 0.932192 421.987 0.650192 421.082 0.650192H401.436C400.56 0.650192 399.806 0.947154 399.198 1.53232C398.591 2.11748 398.27 2.90357 398.27 3.80503V33.1293C398.27 34.0088 398.579 34.7622 399.187 35.3694L399.188 35.3711C399.798 35.9765 400.554 36.2841 401.436 36.2841H421.082C421.987 36.2841 422.74 36.0021 423.317 35.447C423.906 34.8821 424.204 34.1462 424.204 33.2597C424.204 32.4084 423.894 31.6699 423.305 31.1245C422.726 30.5914 421.979 30.3208 421.082 30.3208H404.602V21.2969H416.17C417.04 21.2969 417.781 21.0192 418.375 20.4694C418.974 19.9107 419.292 19.166 419.292 18.3156C419.292 17.4653 418.974 16.7206 418.373 16.1601C417.781 15.612 417.04 15.3344 416.17 15.3344H404.602V6.61365L421.082 6.61351Z" fill="white"/>
<path d="M467.301 21.6211C468.826 20.7671 470.076 19.6065 471.027 18.1604C472.163 16.4314 472.739 14.4284 472.739 12.2085C472.739 9.97984 472.223 7.96176 471.205 6.21071C470.181 4.45354 468.73 3.06996 466.89 2.09792C465.069 1.13733 462.989 0.65004 460.707 0.65004H452.884C452.008 0.65004 451.254 0.947002 450.646 1.53216C450.039 2.11733 449.718 2.90341 449.718 3.80488V33.1291C449.718 34.0086 450.027 34.7621 450.636 35.3711C451.878 36.6048 453.996 36.5634 455.165 35.3587C455.752 34.7533 456.05 34.0025 456.05 33.1292V23.2461H460.987L468.202 34.7842C468.831 35.7659 469.771 36.284 470.921 36.284C471.834 36.284 472.583 35.9977 473.147 35.4354C473.713 34.8723 474 34.1699 474 33.346C474 32.6868 473.807 32.0452 473.429 31.4398L467.301 21.6211ZM466.582 12.2085C466.582 13.711 466.058 14.8981 464.979 15.8383C463.864 16.8112 462.467 17.2835 460.707 17.2835H456.05V6.61342H460.707C462.452 6.61342 463.839 7.12721 464.95 8.18289C466.048 9.22806 466.582 10.5447 466.582 12.2085Z" fill="white"/>
</g>
<defs>
<clipPath id="clip0_549_2">
<rect width="474" height="37" fill="white"/>
</clipPath>
</defs>
</svg>
