<svg width="1440" height="873" viewBox="0 0 1440 873" fill="none" xmlns="http://www.w3.org/2000/svg">
<mask id="mask0_2216_339" style="mask-type:alpha" maskUnits="userSpaceOnUse" x="-31" y="0" width="1502" height="873">
<rect opacity="0.5" x="-30.9888" y="0.444336" width="1501.98" height="871.878" rx="36.6335" fill="#E0F0F0"/>
</mask>
<g mask="url(#mask0_2216_339)">
<path d="M-449.687 1188.34C-449.687 1034.73 -419.432 882.631 -360.65 740.718C-301.868 598.805 -215.709 469.859 -107.094 361.244C1.52203 252.628 130.467 166.47 272.38 107.687C414.294 48.9051 566.395 18.6503 720 18.6503C873.606 18.6503 1025.71 48.9052 1167.62 107.687C1309.53 166.47 1438.48 252.628 1547.09 361.244C1655.71 469.859 1741.87 598.805 1800.65 740.718C1859.43 882.631 1889.69 1034.73 1889.69 1188.34L1884.75 1188.34C1884.75 1035.38 1854.62 883.922 1796.09 742.608C1737.55 601.294 1651.76 472.894 1543.6 364.737C1435.44 256.58 1307.04 170.785 1165.73 112.251C1024.42 53.7167 872.957 23.5898 720 23.5897C567.044 23.5895 415.584 53.7167 274.271 112.251C132.957 170.785 4.55597 256.579 -103.601 364.736C-211.758 472.893 -297.553 601.294 -356.087 742.608C-414.621 883.922 -444.748 1035.38 -444.748 1188.34L-449.687 1188.34Z" fill="#C7EDED"/>
<path d="M-187.632 1187.09C-187.632 1067.9 -164.155 949.872 -118.542 839.753C-72.9297 729.634 -6.07397 629.577 78.2075 545.296C162.489 461.014 262.546 394.158 372.665 348.546C482.784 302.933 600.809 279.456 720.001 279.456C839.193 279.456 957.218 302.933 1067.34 348.546C1177.46 394.159 1277.51 461.014 1361.79 545.296C1446.08 629.577 1512.93 729.634 1558.54 839.753C1604.16 949.872 1627.63 1067.9 1627.63 1187.09L1622.11 1187.09C1622.11 1068.62 1598.78 951.315 1553.44 841.866C1508.11 732.417 1441.66 632.969 1357.89 549.201C1274.12 465.432 1174.67 398.983 1065.22 353.648C955.774 308.312 838.468 284.979 720.001 284.979C601.534 284.979 484.227 308.312 374.778 353.648C265.329 398.983 165.881 465.432 82.1124 549.201C-1.65624 632.969 -68.1052 732.417 -113.441 841.866C-158.776 951.315 -182.11 1068.62 -182.11 1187.09L-187.632 1187.09Z" fill="#C7EDED"/>
<path d="M-92.2964 1399.19C-92.2964 1292.52 -71.2857 1186.89 -30.464 1088.34C10.3578 989.789 70.1912 900.242 145.62 824.813C221.049 749.385 310.596 689.551 409.148 648.73C507.7 607.908 613.328 586.897 720.001 586.897C826.673 586.897 932.301 607.908 1030.85 648.73C1129.41 689.551 1218.95 749.385 1294.38 824.814C1369.81 900.242 1429.64 989.789 1470.47 1088.34C1511.29 1186.89 1532.3 1292.52 1532.3 1399.19L1526.75 1399.19C1526.75 1293.25 1505.88 1188.34 1465.34 1090.47C1424.79 992.587 1365.37 903.652 1290.46 828.739C1215.54 753.826 1126.61 694.401 1028.73 653.858C930.85 613.315 825.944 592.448 720.001 592.448C614.057 592.448 509.151 613.315 411.272 653.858C313.393 694.401 224.458 753.825 149.545 828.739C74.6318 903.652 15.2074 992.587 -25.3355 1090.47C-65.8782 1188.34 -86.7454 1293.25 -86.7453 1399.19L-92.2964 1399.19Z" fill="#C7EDED"/>
</g>
</svg>
